<svg width="263" height="212" viewBox="0 0 263 212" fill="none" xmlns="http://www.w3.org/2000/svg">
<path d="M92.3352 170L87.4943 152.545H90.2642L93.6648 166.062H93.8267L97.3636 152.545H100.108L103.645 166.071H103.807L107.199 152.545H109.977L105.128 170H102.477L98.804 156.926H98.6676L94.9943 170H92.3352Z" fill="white"/>
<path d="M116.527 170.264C115.237 170.264 114.126 169.989 113.195 169.438C112.268 168.881 111.553 168.099 111.047 167.094C110.547 166.082 110.297 164.898 110.297 163.54C110.297 162.199 110.547 161.017 111.047 159.994C111.553 158.972 112.257 158.173 113.161 157.599C114.07 157.026 115.132 156.739 116.348 156.739C117.087 156.739 117.803 156.861 118.496 157.105C119.189 157.349 119.811 157.733 120.362 158.256C120.913 158.778 121.348 159.457 121.666 160.293C121.984 161.122 122.143 162.131 122.143 163.318V164.222H111.737V162.312H119.646C119.646 161.642 119.51 161.048 119.237 160.531C118.964 160.009 118.581 159.597 118.087 159.295C117.598 158.994 117.024 158.844 116.365 158.844C115.649 158.844 115.024 159.02 114.49 159.372C113.962 159.719 113.553 160.173 113.263 160.736C112.979 161.293 112.837 161.898 112.837 162.551V164.043C112.837 164.918 112.99 165.662 113.297 166.276C113.609 166.889 114.044 167.358 114.601 167.682C115.158 168 115.808 168.159 116.553 168.159C117.036 168.159 117.476 168.091 117.874 167.955C118.271 167.812 118.615 167.602 118.905 167.324C119.195 167.045 119.416 166.702 119.57 166.293L121.982 166.727C121.788 167.438 121.442 168.06 120.942 168.594C120.447 169.122 119.825 169.534 119.075 169.83C118.331 170.119 117.482 170.264 116.527 170.264Z" fill="white"/>
<path d="M128.781 170.29C127.951 170.29 127.201 170.136 126.531 169.83C125.86 169.517 125.329 169.065 124.937 168.474C124.55 167.884 124.357 167.159 124.357 166.301C124.357 165.562 124.499 164.955 124.783 164.477C125.067 164 125.451 163.622 125.934 163.344C126.417 163.065 126.957 162.855 127.553 162.713C128.15 162.571 128.758 162.463 129.377 162.389C130.161 162.298 130.798 162.224 131.286 162.168C131.775 162.105 132.13 162.006 132.352 161.869C132.573 161.733 132.684 161.511 132.684 161.205V161.145C132.684 160.401 132.474 159.824 132.053 159.415C131.638 159.006 131.019 158.801 130.195 158.801C129.337 158.801 128.661 158.991 128.167 159.372C127.678 159.747 127.34 160.165 127.153 160.625L124.758 160.08C125.042 159.284 125.457 158.642 126.002 158.153C126.553 157.659 127.187 157.301 127.903 157.08C128.619 156.852 129.371 156.739 130.161 156.739C130.684 156.739 131.238 156.801 131.823 156.926C132.414 157.045 132.965 157.267 133.477 157.591C133.994 157.915 134.417 158.378 134.746 158.98C135.076 159.577 135.241 160.352 135.241 161.307V170H132.752V168.21H132.65C132.485 168.54 132.238 168.864 131.908 169.182C131.579 169.5 131.156 169.764 130.638 169.974C130.121 170.185 129.502 170.29 128.781 170.29ZM129.335 168.244C130.039 168.244 130.641 168.105 131.141 167.827C131.647 167.548 132.031 167.185 132.292 166.736C132.559 166.281 132.692 165.795 132.692 165.278V163.591C132.602 163.682 132.425 163.767 132.164 163.847C131.908 163.92 131.616 163.986 131.286 164.043C130.957 164.094 130.636 164.142 130.323 164.188C130.011 164.227 129.749 164.261 129.539 164.29C129.045 164.352 128.593 164.457 128.184 164.605C127.781 164.753 127.457 164.966 127.212 165.244C126.974 165.517 126.854 165.881 126.854 166.335C126.854 166.966 127.087 167.443 127.553 167.767C128.019 168.085 128.613 168.244 129.335 168.244Z" fill="white"/>
<path d="M144.746 156.909V158.955H137.595V156.909H144.746ZM139.513 153.773H142.061V166.156C142.061 166.651 142.135 167.023 142.283 167.273C142.43 167.517 142.621 167.685 142.854 167.776C143.092 167.861 143.351 167.903 143.629 167.903C143.834 167.903 144.013 167.889 144.166 167.861C144.32 167.832 144.439 167.81 144.524 167.793L144.984 169.898C144.837 169.955 144.626 170.011 144.354 170.068C144.081 170.131 143.74 170.165 143.331 170.17C142.661 170.182 142.036 170.062 141.456 169.812C140.876 169.562 140.408 169.176 140.05 168.653C139.692 168.131 139.513 167.474 139.513 166.685V153.773Z" fill="white"/>
<path d="M150.394 162.227V170H147.846V152.545H150.36V159.04H150.522C150.829 158.335 151.298 157.776 151.928 157.361C152.559 156.946 153.383 156.739 154.4 156.739C155.298 156.739 156.082 156.923 156.752 157.293C157.428 157.662 157.951 158.213 158.32 158.946C158.695 159.673 158.883 160.582 158.883 161.673V170H156.335V161.98C156.335 161.02 156.087 160.276 155.593 159.747C155.099 159.213 154.411 158.946 153.531 158.946C152.928 158.946 152.388 159.074 151.911 159.33C151.44 159.585 151.067 159.96 150.795 160.455C150.528 160.943 150.394 161.534 150.394 162.227Z" fill="white"/>
<path d="M167.925 170.264C166.636 170.264 165.525 169.989 164.593 169.438C163.667 168.881 162.951 168.099 162.445 167.094C161.945 166.082 161.695 164.898 161.695 163.54C161.695 162.199 161.945 161.017 162.445 159.994C162.951 158.972 163.656 158.173 164.559 157.599C165.468 157.026 166.531 156.739 167.746 156.739C168.485 156.739 169.201 156.861 169.894 157.105C170.587 157.349 171.21 157.733 171.761 158.256C172.312 158.778 172.746 159.457 173.065 160.293C173.383 161.122 173.542 162.131 173.542 163.318V164.222H163.136V162.312H171.045C171.045 161.642 170.908 161.048 170.636 160.531C170.363 160.009 169.979 159.597 169.485 159.295C168.996 158.994 168.423 158.844 167.763 158.844C167.048 158.844 166.423 159.02 165.888 159.372C165.36 159.719 164.951 160.173 164.661 160.736C164.377 161.293 164.235 161.898 164.235 162.551V164.043C164.235 164.918 164.388 165.662 164.695 166.276C165.008 166.889 165.442 167.358 165.999 167.682C166.556 168 167.207 168.159 167.951 168.159C168.434 168.159 168.874 168.091 169.272 167.955C169.67 167.812 170.013 167.602 170.303 167.324C170.593 167.045 170.815 166.702 170.968 166.293L173.38 166.727C173.187 167.438 172.84 168.06 172.34 168.594C171.846 169.122 171.224 169.534 170.474 169.83C169.729 170.119 168.88 170.264 167.925 170.264Z" fill="white"/>
<path d="M176.369 170V156.909H178.832V158.989H178.969C179.207 158.284 179.628 157.73 180.23 157.327C180.838 156.918 181.526 156.713 182.293 156.713C182.452 156.713 182.639 156.719 182.855 156.73C183.077 156.741 183.25 156.756 183.375 156.773V159.21C183.273 159.182 183.091 159.151 182.83 159.116C182.568 159.077 182.307 159.057 182.045 159.057C181.443 159.057 180.906 159.185 180.435 159.44C179.969 159.69 179.599 160.04 179.327 160.489C179.054 160.932 178.918 161.437 178.918 162.006V170H176.369Z" fill="white"/>
<path d="M197.597 158.06C197.433 157.543 197.211 157.08 196.933 156.67C196.66 156.256 196.333 155.903 195.952 155.614C195.572 155.318 195.137 155.094 194.648 154.94C194.165 154.787 193.634 154.71 193.055 154.71C192.072 154.71 191.185 154.963 190.396 155.469C189.606 155.974 188.981 156.716 188.521 157.693C188.066 158.665 187.839 159.855 187.839 161.264C187.839 162.679 188.069 163.875 188.529 164.852C188.989 165.83 189.62 166.571 190.421 167.077C191.222 167.582 192.134 167.835 193.157 167.835C194.106 167.835 194.933 167.642 195.637 167.256C196.347 166.869 196.896 166.324 197.282 165.619C197.674 164.909 197.87 164.074 197.87 163.114L198.552 163.241H193.558V161.068H200.418V163.054C200.418 164.52 200.106 165.793 199.481 166.872C198.862 167.946 198.004 168.776 196.907 169.361C195.816 169.946 194.566 170.239 193.157 170.239C191.577 170.239 190.191 169.875 188.998 169.148C187.81 168.42 186.884 167.389 186.219 166.054C185.555 164.713 185.222 163.122 185.222 161.281C185.222 159.889 185.415 158.639 185.802 157.531C186.188 156.423 186.731 155.483 187.43 154.71C188.134 153.932 188.961 153.338 189.91 152.929C190.864 152.514 191.907 152.307 193.038 152.307C193.981 152.307 194.859 152.446 195.671 152.724C196.489 153.003 197.217 153.398 197.853 153.909C198.495 154.42 199.026 155.028 199.447 155.733C199.867 156.432 200.151 157.207 200.299 158.06H197.597Z" fill="#F057AE"/>
<path d="M204.377 170V156.909H206.925V170H204.377ZM205.664 154.889C205.221 154.889 204.84 154.741 204.522 154.446C204.21 154.145 204.053 153.787 204.053 153.372C204.053 152.952 204.21 152.594 204.522 152.298C204.84 151.997 205.221 151.847 205.664 151.847C206.107 151.847 206.485 151.997 206.798 152.298C207.116 152.594 207.275 152.952 207.275 153.372C207.275 153.787 207.116 154.145 206.798 154.446C206.485 154.741 206.107 154.889 205.664 154.889Z" fill="#F057AE"/>
<path d="M210.354 170V156.909H212.817V158.989H212.953C213.192 158.284 213.612 157.73 214.214 157.327C214.822 156.918 215.51 156.713 216.277 156.713C216.436 156.713 216.624 156.719 216.839 156.73C217.061 156.741 217.234 156.756 217.359 156.773V159.21C217.257 159.182 217.075 159.151 216.814 159.116C216.553 159.077 216.291 159.057 216.03 159.057C215.428 159.057 214.891 159.185 214.419 159.44C213.953 159.69 213.584 160.04 213.311 160.489C213.038 160.932 212.902 161.437 212.902 162.006V170H210.354Z" fill="#F057AE"/>
<path d="M222.113 152.545V170H219.565V152.545H222.113Z" fill="#F057AE"/>
<path d="M235.351 160.105L233.041 160.514C232.945 160.219 232.791 159.938 232.581 159.67C232.376 159.403 232.098 159.185 231.746 159.014C231.393 158.844 230.953 158.759 230.425 158.759C229.703 158.759 229.101 158.92 228.618 159.244C228.135 159.563 227.893 159.974 227.893 160.48C227.893 160.918 228.055 161.27 228.379 161.537C228.703 161.804 229.226 162.023 229.947 162.193L232.027 162.67C233.232 162.949 234.129 163.378 234.72 163.957C235.311 164.537 235.607 165.29 235.607 166.216C235.607 167 235.379 167.699 234.925 168.312C234.476 168.92 233.848 169.398 233.041 169.744C232.24 170.091 231.311 170.264 230.254 170.264C228.788 170.264 227.592 169.952 226.666 169.327C225.74 168.696 225.172 167.801 224.962 166.642L227.425 166.267C227.578 166.909 227.893 167.395 228.371 167.724C228.848 168.048 229.47 168.21 230.237 168.21C231.072 168.21 231.74 168.037 232.24 167.69C232.74 167.338 232.99 166.909 232.99 166.403C232.99 165.994 232.837 165.651 232.53 165.372C232.229 165.094 231.766 164.884 231.141 164.741L228.925 164.256C227.703 163.977 226.8 163.534 226.214 162.926C225.635 162.318 225.345 161.548 225.345 160.616C225.345 159.844 225.561 159.168 225.993 158.588C226.425 158.009 227.021 157.557 227.783 157.233C228.544 156.903 229.416 156.739 230.399 156.739C231.814 156.739 232.928 157.045 233.74 157.659C234.553 158.267 235.089 159.082 235.351 160.105Z" fill="#F057AE"/>
<path d="M91 125.125C81.9495 125.125 73.2697 121.53 66.87 115.13C60.4703 108.73 56.875 100.051 56.875 91C56.875 81.9495 60.4703 73.2697 66.87 66.87C73.2697 60.4703 81.9495 56.875 91 56.875C100.051 56.875 108.73 60.4703 115.13 66.87C121.53 73.2697 125.125 81.9495 125.125 91C117.5 97 121.53 108.73 115.13 115.13C108.73 121.53 100.051 125.125 91 125.125ZM91 136.5C103.067 136.5 108.967 134.533 117.5 126C98.8266 105.827 123.291 78.5 135.5 86C135.5 73.9326 131.706 67.3595 123.173 58.8266C114.64 50.2937 103.067 45.5 91 45.5C78.9326 45.5 67.3595 50.2937 58.8266 58.8266C50.2937 67.3595 45.5 78.9326 45.5 91C45.5 103.067 50.2937 114.64 58.8266 123.173C67.3595 131.706 78.9326 136.5 91 136.5ZM91 0C92.5084 0 93.9551 0.599217 95.0217 1.66583C96.0883 2.73244 96.6875 4.17908 96.6875 5.6875V28.4375C96.6875 29.9459 96.0883 31.3926 95.0217 32.4592C93.9551 33.5258 92.5084 34.125 91 34.125C89.4916 34.125 88.0449 33.5258 86.9783 32.4592C85.9117 31.3926 85.3125 29.9459 85.3125 28.4375V5.6875C85.3125 4.17908 85.9117 2.73244 86.9783 1.66583C88.0449 0.599217 89.4916 0 91 0ZM34.125 91C34.125 92.5084 33.5258 93.9551 32.4592 95.0217C31.3926 96.0883 29.9459 96.6875 28.4375 96.6875H5.6875C4.17908 96.6875 2.73244 96.0883 1.66583 95.0217C0.599217 93.9551 0 92.5084 0 91C0 89.4916 0.599217 88.0449 1.66583 86.9783C2.73244 85.9117 4.17908 85.3125 5.6875 85.3125H28.4375C29.9459 85.3125 31.3926 85.9117 32.4592 86.9783C33.5258 88.0449 34.125 89.4916 34.125 91ZM155.348 26.6516C156.415 27.7182 157.014 29.1646 157.014 30.6727C157.014 32.1808 156.415 33.6272 155.348 34.6937L139.264 50.7894C138.735 51.3174 138.108 51.7362 137.417 52.0216C136.726 52.3071 135.986 52.4538 135.239 52.4533C133.73 52.4522 132.283 51.8516 131.216 50.7837C130.688 50.2549 130.27 49.6273 129.984 48.9366C129.699 48.246 129.552 47.5059 129.552 46.7586C129.553 45.2493 130.154 43.8023 131.222 42.7359L147.306 26.6516C148.373 25.5854 149.819 24.9864 151.327 24.9864C152.835 24.9864 154.282 25.5854 155.348 26.6516ZM50.778 131.222C51.8442 132.289 52.4432 133.735 52.4432 135.243C52.4432 136.751 51.8442 138.198 50.778 139.264L34.6937 155.348C33.6211 156.384 32.1844 156.958 30.6932 156.945C29.2019 156.932 27.7754 156.334 26.7209 155.279C25.6664 154.225 25.0682 152.798 25.0553 151.307C25.0423 149.816 25.6156 148.379 26.6516 147.306L42.7359 131.222C43.8024 130.156 45.2488 129.557 46.7569 129.557C48.2651 129.557 49.7114 130.156 50.778 131.222ZM50.778 50.7894C49.7114 51.8556 48.2651 52.4546 46.7569 52.4546C45.2488 52.4546 43.8024 51.8556 42.7359 50.7894L26.6516 34.6937C26.1084 34.1691 25.6751 33.5415 25.377 32.8476C25.079 32.1537 24.9221 31.4074 24.9155 30.6522C24.909 29.897 25.0529 29.1481 25.3388 28.4491C25.6248 27.7502 26.0471 27.1151 26.5811 26.5811C27.1151 26.0471 27.7502 25.6248 28.4491 25.3388C29.1481 25.0529 29.897 24.909 30.6522 24.9155C31.4074 24.9221 32.1537 25.079 32.8476 25.377C33.5415 25.6751 34.1691 26.1084 34.6937 26.6516L50.778 42.7359C51.3077 43.2642 51.7279 43.8918 52.0146 44.5828C52.3013 45.2738 52.4489 46.0145 52.4489 46.7626C52.4489 47.5107 52.3013 48.2515 52.0146 48.9425C51.7279 49.6334 51.3077 50.2611 50.778 50.7894Z" fill="#F057AE"/>
<path fill-rule="evenodd" clip-rule="evenodd" d="M117.531 120.516C117.527 111.555 120.47 102.842 125.907 95.7197C131.344 88.5974 138.974 83.4616 147.618 81.1043C156.263 78.747 165.444 79.2991 173.744 82.6755C182.044 86.0518 189.002 92.0649 193.547 99.7875C182.213 102.238 171.906 108.115 164.025 116.621C162.408 118.465 161.574 120.868 161.7 123.317C161.826 125.766 162.902 128.07 164.7 129.739C166.498 131.407 168.875 132.309 171.327 132.252C173.779 132.196 176.113 131.185 177.831 129.435C181.504 125.476 185.985 122.353 190.97 120.276C195.955 118.2 201.328 117.219 206.725 117.4C216.585 117.759 225.911 121.97 232.701 129.13C239.49 136.289 243.201 145.826 243.036 155.691C242.872 165.556 238.845 174.964 231.821 181.893C224.797 188.822 215.335 192.72 205.469 192.75H108.109C100.613 192.753 93.4221 189.779 88.1189 184.48C82.8157 179.182 79.8345 171.993 79.8312 164.497C79.8279 157 82.8026 149.81 88.1011 144.506C93.3996 139.203 100.588 136.222 108.084 136.219H108.461C109.8 136.224 111.125 135.943 112.347 135.396C113.569 134.849 114.66 134.048 115.548 133.046C116.436 132.044 117.1 130.864 117.496 129.585C117.892 128.306 118.011 126.957 117.845 125.629C117.625 123.933 117.52 122.225 117.531 120.516ZM158.359 60.8438C142.916 60.8429 128.073 66.8297 116.952 77.5455C105.831 88.2613 99.2974 102.872 98.7252 118.305C87.2899 120.642 77.129 127.141 70.2107 136.541C63.2924 145.941 60.1091 157.575 61.2773 169.188C62.4455 180.801 67.8821 191.568 76.5341 199.402C85.186 207.236 96.4376 211.581 108.109 211.594H205.469C219.723 211.609 233.457 206.239 243.921 196.559C254.384 186.879 260.804 173.603 261.896 159.39C262.987 145.177 258.668 131.077 249.805 119.913C240.942 108.749 228.189 101.345 214.099 99.1845C209.781 87.9029 202.14 78.1975 192.188 71.3516C182.235 64.5056 170.439 60.8416 158.359 60.8438Z" fill="white"/>
</svg>
